#usda 1.0
(
    defaultPrim = "World"
    doc = "Blender v5.2.1 LTS"
    metersPerUnit = 1
    upAxis = "Z"
)

def Xform "World" (
    prepend apiSchemas = ["ColorSpaceAPI"]
    customData = {
        dictionary Blender = {
            bool generated = 1
        }
    }
)
{
    uniform token colorSpace:name = "lin_rec709_scene"

    def Xform "Camera"
    {
        custom string userProperties:blender:object_name = "Camera"
        float3 xformOp:rotateXYZ = (75.463, 0.00000294729, 34.695156)
        float3 xformOp:scale = (1, 1, 1)
        double3 xformOp:translate = (4.5, -6.5, 3.5)
        uniform token[] xformOpOrder = ["xformOp:translate", "xformOp:rotateXYZ", "xformOp:scale"]

        def Camera "Camera"
        {
            float2 clippingRange = (0.1, 1000)
            float focalLength = 0.5
            float horizontalAperture = 0.36
            token projection = "perspective"
            custom string userProperties:blender:data_name = "Camera"
            float verticalAperture = 0.2025
        }
    }

    def Xform "Flagpole"
    {
        custom string userProperties:blender:object_name = "Flagpole"
        float3 xformOp:rotateXYZ = (0, -0, 0)
        float3 xformOp:scale = (1, 1, 1)
        double3 xformOp:translate = (-1.2549999952316284, 0, 1.25)
        uniform token[] xformOpOrder = ["xformOp:translate", "xformOp:rotateXYZ", "xformOp:scale"]

        def Mesh "FlagpoleMesh" (
            active = true
            prepend apiSchemas = ["MaterialBindingAPI"]
        )
        {
            uniform bool doubleSided = 1
            float3[] extent = [(-0.055, -0.055, -1.25), (0.055, 0.055, 1.25)]
            int[] faceVertexCounts = [3, 3, 3, 3, 3, 3, 3, 3, 3, 3, 3, 3, 3, 3, 3, 3, 3, 3, 3, 3, 3, 3, 3, 3, 3, 3, 3, 3, 3, 3, 3, 3, 3, 3, 3, 3, 3, 3, 3, 3, 3, 3, 3, 3, 3, 3, 3, 3, 3, 3, 3, 3, 3, 3, 3, 3, 3, 3, 3, 3, 3, 3, 3, 3, 3, 3, 3, 3, 3, 3, 3, 3, 3, 3, 3, 3, 3, 3, 3, 3, 3, 3, 3, 3, 3, 3, 3, 3, 3, 3, 3, 3, 3, 3, 3, 3, 3, 3, 3, 3, 3, 3, 3, 3, 3, 3, 3, 3, 3, 3, 3, 3, 3, 3, 3, 3, 3, 3, 3, 3, 3, 3, 3, 3]
            int[] faceVertexIndices = [1, 2, 0, 3, 4, 2, 5, 6, 4, 7, 8, 6, 9, 10, 8, 11, 12, 10, 13, 14, 12, 15, 16, 14, 17, 18, 16, 19, 20, 18, 21, 22, 20, 23, 24, 22, 25, 26, 24, 27, 28, 26, 29, 30, 28, 31, 32, 30, 33, 34, 32, 35, 36, 34, 37, 38, 36, 39, 40, 38, 41, 42, 40, 43, 44, 42, 45, 46, 44, 47, 48, 46, 49, 50, 48, 51, 52, 50, 53, 54, 52, 55, 56, 54, 57, 58, 56, 59, 60, 58, 37, 21, 5, 61, 62, 60, 63, 0, 62, 30, 46, 62, 1, 3, 2, 3, 5, 4, 5, 7, 6, 7, 9, 8, 9, 11, 10, 11, 13, 12, 13, 15, 14, 15, 17, 16, 17, 19, 18, 19, 21, 20, 21, 23, 22, 23, 25, 24, 25, 27, 26, 27, 29, 28, 29, 31, 30, 31, 33, 32, 33, 35, 34, 35, 37, 36, 37, 39, 38, 39, 41, 40, 41, 43, 42, 43, 45, 44, 45, 47, 46, 47, 49, 48, 49, 51, 50, 51, 53, 52, 53, 55, 54, 55, 57, 56, 57, 59, 58, 59, 61, 60, 5, 3, 61, 3, 1, 61, 1, 63, 61, 61, 59, 57, 57, 55, 53, 53, 51, 49, 49, 47, 53, 47, 45, 53, 45, 43, 41, 41, 39, 37, 37, 35, 29, 35, 33, 29, 33, 31, 29, 29, 27, 25, 25, 23, 21, 21, 19, 17, 17, 15, 21, 15, 13, 21, 13, 11, 9, 9, 7, 5, 61, 57, 53, 45, 41, 37, 29, 25, 21, 13, 9, 5, 5, 61, 53, 53, 45, 37, 37, 29, 21, 21, 13, 5, 5, 53, 37, 61, 63, 62, 63, 1, 0, 62, 0, 2, 2, 4, 6, 6, 8, 14, 8, 10, 14, 10, 12, 14, 14, 16, 18, 18, 20, 22, 22, 24, 30, 24, 26, 30, 26, 28, 30, 30, 32, 34, 34, 36, 38, 38, 40, 46, 40, 42, 46, 42, 44, 46, 46, 48, 50, 50, 52, 54, 54, 56, 62, 56, 58, 62, 58, 60, 62, 62, 2, 14, 2, 6, 14, 14, 18, 30, 18, 22, 30, 30, 34, 46, 34, 38, 46, 46, 50, 62, 50, 54, 62, 62, 14, 30]
            rel material:binding = </World/_materials/Flagpole_Metal>
            normal3f[] normals = [(5.528688e-7, 1, 0), (0.19508982, 0.9807854, 0), (-5.528688e-7, 1, 0), (0.19509088, 0.9807852, 0), (0.38268274, 0.9238798, 0), (0.19508982, 0.9807854, 0), (0.3826838, 0.92387944, 0), (0.5555699, 0.8314699, 0), (0.38268274, 0.9238798, 0), (0.55557066, 0.83146936, 0), (0.70710653, 0.7071071, 0), (0.5555699, 0.8314699, 0), (0.707107, 0.7071066, 0), (0.8314692, 0.5555708, 0), (0.70710653, 0.7071071, 0), (0.83147, 0.55556965, 0), (0.923879, 0.3826845, 0), (0.8314692, 0.5555708, 0), (0.9238801, 0.38268203, 0), (0.980785, 0.19509155, 0), (0.923879, 0.3826845, 0), (0.9807855, 0.19508944, 0), (1, 5.528689e-7, 0), (0.980785, 0.19509155, 0), (1, -5.528689e-7, 0), (0.9807855, -0.19508944, 0), (1, 5.528689e-7, 0), (0.980785, -0.19509155, 0), (0.9238801, -0.38268203, 0), (0.9807855, -0.19508944, 0), (0.923879, -0.3826845, 0), (0.83147, -0.55556965, 0), (0.9238801, -0.38268203, 0), (0.8314692, -0.5555708, 0), (0.707107, -0.7071066, 0), (0.83147, -0.55556965, 0), (0.70710653, -0.7071071, 0), (0.55557066, -0.83146936, 0), (0.707107, -0.7071066, 0), (0.5555699, -0.8314699, 0), (0.3826838, -0.92387944, 0), (0.55557066, -0.83146936, 0), (0.38268274, -0.9238798, 0), (0.19509088, -0.9807852, 0), (0.3826838, -0.92387944, 0), (0.19508982, -0.9807854, 0), (5.528688e-7, -1, 0), (0.19509088, -0.9807852, 0), (-5.528688e-7, -1, 0), (-0.19508982, -0.9807854, 0), (5.528688e-7, -1, 0), (-0.19509088, -0.9807852, 0), (-0.38268274, -0.9238798, 0), (-0.19508982, -0.9807854, 0), (-0.3826838, -0.92387944, 0), (-0.5555699, -0.8314699, 0), (-0.38268274, -0.9238798, 0), (-0.55557066, -0.83146936, 0), (-0.70710653, -0.7071071, 0), (-0.5555699, -0.8314699, 0), (-0.707107, -0.7071066, 0), (-0.8314692, -0.5555708, 0), (-0.70710653, -0.7071071, 0), (-0.83147, -0.55556965, 0), (-0.923879, -0.3826845, 0), (-0.8314692, -0.5555708, 0), (-0.9238801, -0.38268203, 0), (-0.980785, -0.19509155, 0), (-0.923879, -0.3826845, 0), (-0.9807855, -0.19508944, 0), (-1, -5.528689e-7, 0), (-0.980785, -0.19509155, 0), (-1, 5.528689e-7, 0), (-0.9807855, 0.19508944, 0), (-1, -5.528689e-7, 0), (-0.980785, 0.19509155, 0), (-0.9238801, 0.38268203, 0), (-0.9807855, 0.19508944, 0), (-0.923879, 0.3826845, 0), (-0.83147, 0.55556965, 0), (-0.9238801, 0.38268203, 0), (-0.8314692, 0.5555708, 0), (-0.707107, 0.7071066, 0), (-0.83147, 0.55556965, 0), (-0.70710653, 0.7071071, 0), (-0.55557066, 0.83146936, 0), (-0.707107, 0.7071066, 0), (-0.5555699, 0.8314699, 0), (-0.3826838, 0.92387944, 0), (-0.55557066, 0.83146936, 0), (-0.000002463002, 0, 1), (-0.000002463002, 0, 1), (-0.000002463002, 0, 1), (-0.38268274, 0.9238798, 0), (-0.19509088, 0.9807852, 0), (-0.3826838, 0.92387944, 0), (-0.19508982, 0.9807854, 0), (-5.528688e-7, 1, 0), (-0.19509088, 0.9807852, 0), (0, 0, -1), (0, 0, -1), (0, 0, -1), (5.528688e-7, 1, 0), (0.19509088, 0.9807852, 0), (0.19508982, 0.9807854, 0), (0.19509088, 0.9807852, 0), (0.3826838, 0.92387944, 0), (0.38268274, 0.9238798, 0), (0.3826838, 0.92387944, 0), (0.55557066, 0.83146936, 0), (0.5555699, 0.8314699, 0), (0.55557066, 0.83146936, 0), (0.707107, 0.7071066, 0), (0.70710653, 0.7071071, 0), (0.707107, 0.7071066, 0), (0.83147, 0.55556965, 0), (0.8314692, 0.5555708, 0), (0.83147, 0.55556965, 0), (0.9238801, 0.38268203, 0), (0.923879, 0.3826845, 0), (0.9238801, 0.38268203, 0), (0.9807855, 0.19508944, 0), (0.980785, 0.19509155, 0), (0.9807855, 0.19508944, 0), (1, -5.528689e-7, 0), (1, 5.528689e-7, 0), (1, -5.528689e-7, 0), (0.980785, -0.19509155, 0), (0.9807855, -0.19508944, 0), (0.980785, -0.19509155, 0), (0.923879, -0.3826845, 0), (0.9238801, -0.38268203, 0), (0.923879, -0.3826845, 0), (0.8314692, -0.5555708, 0), (0.83147, -0.55556965, 0), (0.8314692, -0.5555708, 0), (0.70710653, -0.7071071, 0), (0.707107, -0.7071066, 0), (0.70710653, -0.7071071, 0), (0.5555699, -0.8314699, 0), (0.55557066, -0.83146936, 0), (0.5555699, -0.8314699, 0), (0.38268274, -0.9238798, 0), (0.3826838, -0.92387944, 0), (0.38268274, -0.9238798, 0), (0.19508982, -0.9807854, 0), (0.19509088, -0.9807852, 0), (0.19508982, -0.9807854, 0), (-5.528688e-7, -1, 0), (5.528688e-7, -1, 0), (-5.528688e-7, -1, 0), (-0.19509088, -0.9807852, 0), (-0.19508982, -0.9807854, 0), (-0.19509088, -0.9807852, 0), (-0.3826838, -0.92387944, 0), (-0.38268274, -0.9238798, 0), (-0.3826838, -0.92387944, 0), (-0.55557066, -0.83146936, 0), (-0.5555699, -0.8314699, 0), (-0.55557066, -0.83146936, 0), (-0.707107, -0.7071066, 0), (-0.70710653, -0.7071071, 0), (-0.707107, -0.7071066, 0), (-0.83147, -0.55556965, 0), (-0.8314692, -0.5555708, 0), (-0.83147, -0.55556965, 0), (-0.9238801, -0.38268203, 0), (-0.923879, -0.3826845, 0), (-0.9238801, -0.38268203, 0), (-0.9807855, -0.19508944, 0), (-0.980785, -0.19509155, 0), (-0.9807855, -0.19508944, 0), (-1, 5.528689e-7, 0), (-1, -5.528689e-7, 0), (-1, 5.528689e-7, 0), (-0.980785, 0.19509155, 0), (-0.9807855, 0.19508944, 0), (-0.980785, 0.19509155, 0), (-0.923879, 0.3826845, 0), (-0.9238801, 0.38268203, 0), (-0.923879, 0.3826845, 0), (-0.8314692, 0.5555708, 0), (-0.83147, 0.55556965, 0), (-0.8314692, 0.5555708, 0), (-0.70710653, 0.7071071, 0), (-0.707107, 0.7071066, 0), (-0.70710653, 0.7071071, 0), (-0.5555699, 0.8314699, 0), (-0.55557066, 0.83146936, 0), (-0.5555699, 0.8314699, 0), (-0.38268274, 0.9238798, 0), (-0.3826838, 0.92387944, 0), (0, 0, 1), (0, 0, 1), (0, 0, 1), (0, 0, 1), (0, 0, 1), (0, 0, 1), (0, 0, 1), (0, 0, 1), (0, 0, 1), (0, 0, 1), (0, 0, 1), (0, 0, 1), (0, 0, 1), (0, 0, 1), (0, 0, 1), (0, 0, 1), (0, 0, 1), (0, 0, 1), (0, 0, 1), (0, 0, 1), (0, 0, 1), (0, 0, 1), (0, 0, 1), (0, 0, 1), (0, 0, 1), (0, 0, 1), (0, 0, 1), (0, 0, 1), (0, 0, 1), (0, 0, 1), (0, 0, 1), (0, 0, 1), (0, 0, 1), (0, 0, 1), (0, 0, 1), (0, 0, 1), (0, 0, 1), (0, 0, 1), (0, 0, 1), (0, 0, 1), (0, 0, 1), (0, 0, 1), (0, 0, 1), (0, 0, 1), (0, 0, 1), (0, 0, 1), (0, 0, 1), (0, 0, 1), (0, 0, 1), (0, 0, 1), (0, 0, 1), (0, 0, 1), (0, 0, 1), (0, 0, 1), (0, 0, 1), (0, 0, 1), (0, 0, 1), (0, 0, 1), (0, 0, 1), (0, 0, 1), (0.000021138005, 0, 1), (0.000021138005, 0, 1), (0.000021138005, 0, 1), (0.000021138005, 0, 1), (0.000021138005, 0, 1), (0.000021138005, 0, 1), (-0.000021138005, 0, 1), (-0.000021138005, 0, 1), (-0.000021138005, 0, 1), (-0.000021138005, 0, 1), (-0.000021138005, 0, 1), (-0.000021138005, 0, 1), (0, 0, 1), (0, 0, 1), (0, 0, 1), (0, 0, 0.99999994), (0, 0, 0.99999994), (0, 0, 0.99999994), (0, 0, 1), (0, 0, 1), (0, 0, 1), (0, 0, 0.99999994), (0, 0, 0.99999994), (0, 0, 0.99999994), (0.000002463002, 0, 1), (0.000002463002, 0, 1), (0.000002463002, 0, 1), (-0.38268274, 0.9238798, 0), (-0.19508982, 0.9807854, 0), (-0.19509088, 0.9807852, 0), (-0.19508982, 0.9807854, 0), (5.528688e-7, 1, 0), (-5.528688e-7, 1, 0), (0, 0, -1), (0, 0, -1), (0, 0, -1), (0, 0, -1), (0, 0, -1), (0, 0, -1), (0, 0, -1), (0, 0, -1), (0, 0, -1), (-0.0001109284, 0, -1), (-0.0001109284, 0, -1), (-0.0001109284, 0, -1), (0.000082130544, 0, -1), (0.000082130544, 0, -1), (0.000082130544, 0, -1), (0, 0, -1), (0, 0, -1), (0, 0, -1), (0.00008213057, 0, -1), (0.00008213057, 0, -1), (0.00008213057, 0, -1), (-0.000028275444, 0, -1), (-0.000028275444, 0, -1), (-0.000028275444, 0, -1), (0.00002773199, 0, -1), (0.00002773199, 0, -1), (0.00002773199, 0, -1), (0, 0, -1), (0, 0, -1), (0, 0, -1), (0, 0, -1), (0, 0, -1), (0, 0, -1), (0, 0, -1), (0, 0, -1), (0, 0, -1), (0, 0, -1), (0, 0, -1), (0, 0, -1), (0.0001109284, 0, -1), (0.0001109284, 0, -1), (0.0001109284, 0, -1), (-0.000082130544, 0, -1), (-0.000082130544, 0, -1), (-0.000082130544, 0, -1), (0, 0, -1), (0, 0, -1), (0, 0, -1), (-0.00008213057, 0, -1), (-0.00008213057, 0, -1), (-0.00008213057, 0, -1), (0.000028275444, 0, -1), (0.000028275444, 0, -1), (0.000028275444, 0, -1), (-0.00002773199, 0, -1), (-0.00002773199, 0, -1), (-0.00002773199, 0, -1), (0, 0, -1), (0, 0, -1), (0, 0, -1), (0, 0, -1), (0, 0, -1), (0, 0, -1), (0, 0, -1), (0, 0, -1), (0, 0, -1), (0, 0, -1), (0, 0, -1), (0, 0, -1), (-0.0000074226687, 0, -1), (-0.0000074226687, 0, -1), (-0.0000074226687, 0, -1), (0, 0, -1), (0, 0, -1), (0, 0, -1), (0, 0, -1), (0, 0, -1), (0, 0, -1), (0, 0, -1), (0, 0, -1), (0, 0, -1), (0.0000074226687, 0, -1), (0.0000074226687, 0, -1), (0.0000074226687, 0, -1), (0, 0, -1), (0, 0, -1), (0, 0, -1)] (
                interpolation = "faceVarying"
            )
            point3f[] points = [(0, 0.055, -1.25), (0, 0.055, 1.25), (0.010729968, 0.053943187, -1.25), (0.010729968, 0.053943187, 1.25), (0.02104759, 0.050813373, -1.25), (0.02104759, 0.050813373, 1.25), (0.030556364, 0.04573083, -1.25), (0.030556364, 0.04573083, 1.25), (0.038890872, 0.038890872, -1.25), (0.038890872, 0.038890872, 1.25), (0.04573083, 0.030556364, -1.25), (0.04573083, 0.030556364, 1.25), (0.050813373, 0.02104759, -1.25), (0.050813373, 0.02104759, 1.25), (0.053943187, 0.010729968, -1.25), (0.053943187, 0.010729968, 1.25), (0.055, 0, -1.25), (0.055, 0, 1.25), (0.053943187, -0.010729968, -1.25), (0.053943187, -0.010729968, 1.25), (0.050813373, -0.02104759, -1.25), (0.050813373, -0.02104759, 1.25), (0.04573083, -0.030556364, -1.25), (0.04573083, -0.030556364, 1.25), (0.038890872, -0.038890872, -1.25), (0.038890872, -0.038890872, 1.25), (0.030556364, -0.04573083, -1.25), (0.030556364, -0.04573083, 1.25), (0.02104759, -0.050813373, -1.25), (0.02104759, -0.050813373, 1.25), (0.010729968, -0.053943187, -1.25), (0.010729968, -0.053943187, 1.25), (0, -0.055, -1.25), (0, -0.055, 1.25), (-0.010729968, -0.053943187, -1.25), (-0.010729968, -0.053943187, 1.25), (-0.02104759, -0.050813373, -1.25), (-0.02104759, -0.050813373, 1.25), (-0.030556364, -0.04573083, -1.25), (-0.030556364, -0.04573083, 1.25), (-0.038890872, -0.038890872, -1.25), (-0.038890872, -0.038890872, 1.25), (-0.04573083, -0.030556364, -1.25), (-0.04573083, -0.030556364, 1.25), (-0.050813373, -0.02104759, -1.25), (-0.050813373, -0.02104759, 1.25), (-0.053943187, -0.010729968, -1.25), (-0.053943187, -0.010729968, 1.25), (-0.055, 0, -1.25), (-0.055, 0, 1.25), (-0.053943187, 0.010729968, -1.25), (-0.053943187, 0.010729968, 1.25), (-0.050813373, 0.02104759, -1.25), (-0.050813373, 0.02104759, 1.25), (-0.04573083, 0.030556364, -1.25), (-0.04573083, 0.030556364, 1.25), (-0.038890872, 0.038890872, -1.25), (-0.038890872, 0.038890872, 1.25), (-0.030556364, 0.04573083, -1.25), (-0.030556364, 0.04573083, 1.25), (-0.02104759, 0.050813373, -1.25), (-0.02104759, 0.050813373, 1.25), (-0.010729968, 0.053943187, -1.25), (-0.010729968, 0.053943187, 1.25)]
            texCoord2f[] primvars:st = [(1, 0.5), (0, 0.5), (0.75, 0.49), (1, 1), (0.25, 0.49), (0, 1), (0.96875, 0.5), (0.79682165, 0.48538846), (0.96875, 1), (0.29682168, 0.48538846), (0.9375, 0.5), (0.841844, 0.4717311), (0.9375, 1), (0.34184402, 0.4717311), (0.90625, 0.5), (0.8833369, 0.4495527), (0.90625, 1), (0.38333687, 0.4495527), (0.875, 0.5), (0.9197056, 0.41970563), (0.875, 1), (0.41970563, 0.41970563), (0.84375, 0.5), (0.9495527, 0.38333687), (0.84375, 1), (0.4495527, 0.38333687), (0.8125, 0.5), (0.97173107, 0.34184402), (0.8125, 1), (0.4717311, 0.34184402), (0.78125, 0.5), (0.98538846, 0.29682168), (0.78125, 1), (0.48538846, 0.29682168), (0.75, 0.5), (0.99, 0.25), (0.75, 1), (0.49, 0.25), (0.71875, 0.5), (0.98538846, 0.20317832), (0.71875, 1), (0.48538846, 0.20317832), (0.6875, 0.5), (0.97173107, 0.15815598), (0.6875, 1), (0.4717311, 0.15815598), (0.65625, 0.5), (0.9495527, 0.11666313), (0.65625, 1), (0.4495527, 0.11666313), (0.625, 0.5), (0.9197056, 0.08029437), (0.625, 1), (0.41970563, 0.08029437), (0.59375, 0.5), (0.8833369, 0.050447285), (0.59375, 1), (0.38333687, 0.050447285), (0.5625, 0.5), (0.841844, 0.028268903), (0.5625, 1), (0.34184402, 0.028268903), (0.53125, 0.5), (0.79682165, 0.014611542), (0.53125, 1), (0.29682168, 0.014611542), (0.5, 0.5), (0.75, 0.00999999), (0.5, 1), (0.25, 0.00999999), (0.46875, 0.5), (0.70317835, 0.014611542), (0.46875, 1), (0.20317832, 0.014611542), (0.4375, 0.5), (0.658156, 0.028268903), (0.4375, 1), (0.15815598, 0.028268903), (0.40625, 0.5), (0.6166631, 0.050447285), (0.40625, 1), (0.11666313, 0.050447285), (0.375, 0.5), (0.5802944, 0.08029437), (0.375, 1), (0.08029437, 0.08029437), (0.34375, 0.5), (0.5504473, 0.11666313), (0.34375, 1), (0.050447285, 0.11666313), (0.3125, 0.5), (0.52826893, 0.15815598), (0.3125, 1), (0.028268903, 0.15815598), (0.28125, 0.5), (0.51461154, 0.20317832), (0.28125, 1), (0.014611542, 0.20317832), (0.25, 0.5), (0.51, 0.25), (0.25, 1), (0.00999999, 0.25), (0.21875, 0.5), (0.51461154, 0.29682168), (0.21875, 1), (0.014611542, 0.29682168), (0.1875, 0.5), (0.52826893, 0.34184402), (0.1875, 1), (0.028268903, 0.34184402), (0.15625, 0.5), (0.5504473, 0.38333687), (0.15625, 1), (0.050447285, 0.38333687), (0.125, 0.5), (0.5802944, 0.41970563), (0.125, 1), (0.08029437, 0.41970563), (0.09375, 0.5), (0.6166631, 0.4495527), (0.09375, 1), (0.11666313, 0.4495527), (0.0625, 0.5), (0.658156, 0.4717311), (0.15815598, 0.4717311), (0.0625, 1), (0.03125, 0.5), (0.70317835, 0.48538846), (0.20317832, 0.48538846), (0.03125, 1)] (
                interpolation = "faceVarying"
            )
            int[] primvars:st:indices = [3, 6, 0, 8, 10, 6, 12, 14, 10, 16, 18, 14, 20, 22, 18, 24, 26, 22, 28, 30, 26, 32, 34, 30, 36, 38, 34, 40, 42, 38, 44, 46, 42, 48, 50, 46, 52, 54, 50, 56, 58, 54, 60, 62, 58, 64, 66, 62, 68, 70, 66, 72, 74, 70, 76, 78, 74, 80, 82, 78, 84, 86, 82, 88, 90, 86, 92, 94, 90, 96, 98, 94, 100, 102, 98, 104, 106, 102, 108, 110, 106, 112, 114, 110, 116, 118, 114, 120, 122, 118, 77, 45, 13, 125, 126, 122, 129, 1, 126, 63, 95, 127, 3, 8, 6, 8, 12, 10, 12, 16, 14, 16, 20, 18, 20, 24, 22, 24, 28, 26, 28, 32, 30, 32, 36, 34, 36, 40, 38, 40, 44, 42, 44, 48, 46, 48, 52, 50, 52, 56, 54, 56, 60, 58, 60, 64, 62, 64, 68, 66, 68, 72, 70, 72, 76, 74, 76, 80, 78, 80, 84, 82, 84, 88, 86, 88, 92, 90, 92, 96, 94, 96, 100, 98, 100, 104, 102, 104, 108, 106, 108, 112, 110, 112, 116, 114, 116, 120, 118, 120, 125, 122, 13, 9, 124, 9, 4, 124, 4, 128, 124, 124, 121, 117, 117, 113, 109, 109, 105, 101, 101, 97, 109, 97, 93, 109, 93, 89, 85, 85, 81, 77, 77, 73, 61, 73, 69, 61, 69, 65, 61, 61, 57, 53, 53, 49, 45, 45, 41, 37, 37, 33, 45, 33, 29, 45, 29, 25, 21, 21, 17, 13, 124, 117, 109, 93, 85, 77, 61, 53, 45, 29, 21, 13, 13, 124, 109, 109, 93, 77, 77, 61, 45, 45, 29, 13, 13, 109, 77, 125, 129, 126, 129, 5, 1, 127, 2, 7, 7, 11, 15, 15, 19, 31, 19, 23, 31, 23, 27, 31, 31, 35, 39, 39, 43, 47, 47, 51, 63, 51, 55, 63, 55, 59, 63, 63, 67, 71, 71, 75, 79, 79, 83, 95, 83, 87, 95, 87, 91, 95, 95, 99, 103, 103, 107, 111, 111, 115, 127, 115, 119, 127, 119, 123, 127, 127, 7, 31, 7, 15, 31, 31, 39, 63, 39, 47, 63, 63, 71, 95, 71, 79, 95, 95, 103, 127, 103, 111, 127, 127, 31, 63]
            uniform token subdivisionScheme = "none"
            custom string userProperties:blender:data_name = "FlagpoleMesh"
        }
    }

    def Scope "_materials"
    {
        def Material "Flagpole_Metal" (
            prepend apiSchemas = ["ColorSpaceAPI"]
        )
        {
            uniform token colorSpace:name = "lin_rec709_scene"
            token outputs:surface.connect = </World/_materials/Flagpole_Metal/Principled_BSDF.outputs:surface>
            custom string userProperties:blender:data_name = "Flagpole Metal"

            def Shader "Principled_BSDF"
            {
                uniform token info:id = "UsdPreviewSurface"
                float inputs:clearcoat = 0
                float inputs:clearcoatRoughness = 0.03
                color3f inputs:diffuseColor = (0.055, 0.065, 0.08)
                float inputs:ior = 1.5
                float inputs:metallic = 1
                float inputs:opacity = 1
                float inputs:roughness = 0.28
                float inputs:specular = 0.5
                token outputs:surface
            }
        }

        def Material "Flag_Cloth" (
            prepend apiSchemas = ["ColorSpaceAPI"]
        )
        {
            uniform token colorSpace:name = "lin_rec709_scene"
            token outputs:surface.connect = </World/_materials/Flag_Cloth/Principled_BSDF.outputs:surface>
            custom string userProperties:blender:data_name = "Flag Cloth"

            def Shader "Principled_BSDF"
            {
                uniform token info:id = "UsdPreviewSurface"
                float inputs:clearcoat = 0
                float inputs:clearcoatRoughness = 0.03
                color3f inputs:diffuseColor = (0.035, 0.14, 0.45)
                float inputs:ior = 1.5
                float inputs:metallic = 0
                float inputs:opacity = 1
                float inputs:roughness = 0.62
                float inputs:specular = 0.5
                token outputs:surface
            }
        }
    }

    def Xform "Flag"
    {
        custom string userProperties:blender:object_name = "Flag"

        def Mesh "FlagMesh" (
            active = true
            prepend apiSchemas = ["MaterialBindingAPI"]
        )
        {
            uniform bool doubleSided = 1
            float3[] extent = [(-1.2, 0, 0.7), (1.2, 0, 2.2)]
            int[] faceVertexCounts = [3, 3, 3, 3, 3, 3, 3, 3, 3, 3, 3, 3, 3, 3, 3, 3, 3, 3, 3, 3, 3, 3, 3, 3, 3, 3, 3, 3, 3, 3, 3, 3, 3, 3, 3, 3, 3, 3, 3, 3, 3, 3, 3, 3, 3, 3, 3, 3, 3, 3, 3, 3, 3, 3, 3, 3, 3, 3, 3, 3, 3, 3, 3, 3, 3, 3, 3, 3, 3, 3, 3, 3, 3, 3, 3, 3, 3, 3, 3, 3, 3, 3, 3, 3, 3, 3, 3, 3, 3, 3, 3, 3, 3, 3, 3, 3, 3, 3, 3, 3, 3, 3, 3, 3, 3, 3, 3, 3, 3, 3, 3, 3, 3, 3, 3, 3, 3, 3, 3, 3, 3, 3, 3, 3, 3, 3, 3, 3, 3, 3, 3, 3, 3, 3, 3, 3, 3, 3, 3, 3, 3, 3, 3, 3, 3, 3, 3, 3, 3, 3, 3, 3, 3, 3]
            int[] faceVertexIndices = [0, 12, 1, 1, 12, 13, 1, 13, 2, 2, 13, 14, 2, 14, 3, 3, 14, 15, 3, 15, 4, 4, 15, 16, 4, 16, 5, 5, 16, 17, 5, 17, 6, 6, 17, 18, 6, 18, 7, 7, 18, 19, 7, 19, 8, 8, 19, 20, 8, 20, 9, 9, 20, 21, 9, 21, 10, 10, 21, 22, 10, 22, 11, 11, 22, 23, 12, 24, 13, 13, 24, 25, 13, 25, 14, 14, 25, 26, 14, 26, 15, 15, 26, 27, 15, 27, 16, 16, 27, 28, 16, 28, 17, 17, 28, 29, 17, 29, 18, 18, 29, 30, 18, 30, 19, 19, 30, 31, 19, 31, 20, 20, 31, 32, 20, 32, 21, 21, 32, 33, 21, 33, 22, 22, 33, 34, 22, 34, 23, 23, 34, 35, 24, 36, 25, 25, 36, 37, 25, 37, 26, 26, 37, 38, 26, 38, 27, 27, 38, 39, 27, 39, 28, 28, 39, 40, 28, 40, 29, 29, 40, 41, 29, 41, 30, 30, 41, 42, 30, 42, 31, 31, 42, 43, 31, 43, 32, 32, 43, 44, 32, 44, 33, 33, 44, 45, 33, 45, 34, 34, 45, 46, 34, 46, 35, 35, 46, 47, 36, 48, 37, 37, 48, 49, 37, 49, 38, 38, 49, 50, 38, 50, 39, 39, 50, 51, 39, 51, 40, 40, 51, 52, 40, 52, 41, 41, 52, 53, 41, 53, 42, 42, 53, 54, 42, 54, 43, 43, 54, 55, 43, 55, 44, 44, 55, 56, 44, 56, 45, 45, 56, 57, 45, 57, 46, 46, 57, 58, 46, 58, 47, 47, 58, 59, 48, 60, 49, 49, 60, 61, 49, 61, 50, 50, 61, 62, 50, 62, 51, 51, 62, 63, 51, 63, 52, 52, 63, 64, 52, 64, 53, 53, 64, 65, 53, 65, 54, 54, 65, 66, 54, 66, 55, 55, 66, 67, 55, 67, 56, 56, 67, 68, 56, 68, 57, 57, 68, 69, 57, 69, 58, 58, 69, 70, 58, 70, 59, 59, 70, 71, 60, 72, 61, 61, 72, 73, 61, 73, 62, 62, 73, 74, 62, 74, 63, 63, 74, 75, 63, 75, 64, 64, 75, 76, 64, 76, 65, 65, 76, 77, 65, 77, 66, 66, 77, 78, 66, 78, 67, 67, 78, 79, 67, 79, 68, 68, 79, 80, 68, 80, 69, 69, 80, 81, 69, 81, 70, 70, 81, 82, 70, 82, 71, 71, 82, 83, 72, 84, 73, 73, 84, 85, 73, 85, 74, 74, 85, 86, 74, 86, 75, 75, 86, 87, 75, 87, 76, 76, 87, 88, 76, 88, 77, 77, 88, 89, 77, 89, 78, 78, 89, 90, 78, 90, 79, 79, 90, 91, 79, 91, 80, 80, 91, 92, 80, 92, 81, 81, 92, 93, 81, 93, 82, 82, 93, 94, 82, 94, 83, 83, 94, 95]
            rel material:binding = </World/_materials/Flag_Cloth>
            normal3f[] normals = [(0, -1, 0), (0, -1, 0), (0, -1, 0), (0, -1, 0), (0, -1, 0), (0, -1, 0), (0, -1, 0), (0, -1, 0), (0, -1, 0), (0, -1, 0), (0, -1, 0), (0, -1, 0), (0, -1, 0), (0, -1, 0), (0, -1, 0), (0, -0.99999994, 0), (0, -0.99999994, 0), (0, -0.99999994, 0), (0, -1, 0), (0, -1, 0), (0, -1, 0), (0, -1, 0), (0, -1, 0), (0, -1, 0), (0, -1, 0), (0, -1, 0), (0, -1, 0), (0, -1, 0), (0, -1, 0), (0, -1, 0), (0, -1, 0), (0, -1, 0), (0, -1, 0), (0, -1, 0), (0, -1, 0), (0, -1, 0), (0, -1, 0), (0, -1, 0), (0, -1, 0), (0, -1, 0), (0, -1, 0), (0, -1, 0), (0, -1, 0), (0, -1, 0), (0, -1, 0), (0, -1, 0), (0, -1, 0), (0, -1, 0), (0, -0.99999994, 0), (0, -0.99999994, 0), (0, -0.99999994, 0), (0, -1, 0), (0, -1, 0), (0, -1, 0), (0, -1, 0), (0, -1, 0), (0, -1, 0), (0, -1, 0), (0, -1, 0), (0, -1, 0), (0, -1, 0), (0, -1, 0), (0, -1, 0), (0, -1, 0), (0, -1, 0), (0, -1, 0), (0, -1, 0), (0, -1, 0), (0, -1, 0), (0, -1, 0), (0, -1, 0), (0, -1, 0), (0, -1, 0), (0, -1, 0), (0, -1, 0), (0, -1, 0), (0, -1, 0), (0, -1, 0), (0, -1, 0), (0, -1, 0), (0, -1, 0), (0, -0.99999994, 0), (0, -0.99999994, 0), (0, -0.99999994, 0), (0, -1, 0), (0, -1, 0), (0, -1, 0), (0, -1, 0), (0, -1, 0), (0, -1, 0), (0, -1, 0), (0, -1, 0), (0, -1, 0), (0, -1, 0), (0, -1, 0), (0, -1, 0), (0, -1, 0), (0, -1, 0), (0, -1, 0), (0, -1, 0), (0, -1, 0), (0, -1, 0), (0, -1, 0), (0, -1, 0), (0, -1, 0), (0, -1, 0), (0, -1, 0), (0, -1, 0), (0, -1, 0), (0, -1, 0), (0, -1, 0), (0, -1, 0), (0, -1, 0), (0, -1, 0), (0, -0.99999994, 0), (0, -0.99999994, 0), (0, -0.99999994, 0), (0, -1, 0), (0, -1, 0), (0, -1, 0), (0, -1, 0), (0, -1, 0), (0, -1, 0), (0, -1, 0), (0, -1, 0), (0, -1, 0), (0, -1, 0), (0, -1, 0), (0, -1, 0), (0, -1, 0), (0, -1, 0), (0, -1, 0), (0, -1, 0), (0, -1, 0), (0, -1, 0), (0, -1, 0), (0, -1, 0), (0, -1, 0), (0, -1, 0), (0, -1, 0), (0, -1, 0), (0, -1, 0), (0, -1, 0), (0, -1, 0), (0, -1, 0), (0, -1, 0), (0, -1, 0), (0, -0.99999994, 0), (0, -0.99999994, 0), (0, -0.99999994, 0), (0, -1, 0), (0, -1, 0), (0, -1, 0), (0, -1, 0), (0, -1, 0), (0, -1, 0), (0, -1, 0), (0, -1, 0), (0, -1, 0), (0, -1, 0), (0, -1, 0), (0, -1, 0), (0, -1, 0), (0, -1, 0), (0, -1, 0), (0, -1, 0), (0, -1, 0), (0, -1, 0), (0, -1, 0), (0, -1, 0), (0, -1, 0), (0, -1, 0), (0, -1, 0), (0, -1, 0), (0, -1, 0), (0, -1, 0), (0, -1, 0), (0, -1, 0), (0, -1, 0), (0, -1, 0), (0, -0.99999994, 0), (0, -0.99999994, 0), (0, -0.99999994, 0), (0, -1, 0), (0, -1, 0), (0, -1, 0), (0, -1, 0), (0, -1, 0), (0, -1, 0), (0, -1, 0), (0, -1, 0), (0, -1, 0), (0, -1, 0), (0, -1, 0), (0, -1, 0), (0, -1, 0), (0, -1, 0), (0, -1, 0), (0, -1, 0), (0, -1, 0), (0, -1, 0), (0, -1, 0), (0, -1, 0), (0, -1, 0), (0, -1, 0), (0, -1, 0), (0, -1, 0), (0, -1, 0), (0, -1, 0), (0, -1, 0), (0, -1, 0), (0, -1, 0), (0, -1, 0), (0, -0.99999994, 0), (0, -0.99999994, 0), (0, -0.99999994, 0), (0, -1, 0), (0, -1, 0), (0, -1, 0), (0, -1, 0), (0, -1, 0), (0, -1, 0), (0, -1, 0), (0, -1, 0), (0, -1, 0), (0, -1, 0), (0, -1, 0), (0, -1, 0), (0, -1, 0), (0, -1, 0), (0, -1, 0), (0, -1, 0), (0, -1, 0), (0, -1, 0), (0, -1, 0), (0, -1, 0), (0, -1, 0), (0, -1, 0), (0, -1, 0), (0, -1, 0), (0, -1, 0), (0, -1, 0), (0, -1, 0), (0, -1, 0), (0, -1, 0), (0, -1, 0), (0, -0.99999994, 0), (0, -0.99999994, 0), (0, -0.99999994, 0), (0, -1, 0), (0, -1, 0), (0, -1, 0), (0, -1, 0), (0, -1, 0), (0, -1, 0), (0, -1, 0), (0, -1, 0), (0, -1, 0), (0, -1, 0), (0, -1, 0), (0, -1, 0), (0, -1, 0), (0, -1, 0), (0, -1, 0), (0, -1, 0), (0, -1, 0), (0, -1, 0), (0, -1, 0), (0, -1, 0), (0, -1, 0), (0, -1, 0), (0, -1, 0), (0, -1, 0), (0, -1, 0), (0, -1, 0), (0, -1, 0), (0, -1, 0), (0, -1, 0), (0, -1, 0), (0, -0.99999994, 0), (0, -0.99999994, 0), (0, -0.99999994, 0), (0, -1, 0), (0, -1, 0), (0, -1, 0), (0, -1, 0), (0, -1, 0), (0, -1, 0), (0, -1, 0), (0, -1, 0), (0, -1, 0), (0, -1, 0), (0, -1, 0), (0, -1, 0), (0, -1, 0), (0, -1, 0), (0, -1, 0), (0, -1, 0), (0, -1, 0), (0, -1, 0), (0, -1, 0), (0, -1, 0), (0, -1, 0), (0, -1, 0), (0, -1, 0), (0, -1, 0), (0, -1, 0), (0, -1, 0), (0, -1, 0), (0, -1, 0), (0, -1, 0), (0, -1, 0), (0, -0.99999994, 0), (0, -0.99999994, 0), (0, -0.99999994, 0), (0, -1, 0), (0, -1, 0), (0, -1, 0), (0, -1, 0), (0, -1, 0), (0, -1, 0), (0, -1, 0), (0, -1, 0), (0, -1, 0), (0, -1, 0), (0, -1, 0), (0, -1, 0), (0, -1, 0), (0, -1, 0), (0, -1, 0), (0, -0.99999994, 0), (0, -0.99999994, 0), (0, -0.99999994, 0), (0, -1, 0), (0, -1, 0), (0, -1, 0), (0, -0.99999994, 0), (0, -0.99999994, 0), (0, -0.99999994, 0), (0, -1, 0), (0, -1, 0), (0, -1, 0), (0, -0.99999994, 0), (0, -0.99999994, 0), (0, -0.99999994, 0), (0, -0.99999994, 0), (0, -0.99999994, 0), (0, -0.99999994, 0), (0, -1, 0), (0, -1, 0), (0, -1, 0), (0, -1, 0), (0, -1, 0), (0, -1, 0), (0, -1, 0), (0, -1, 0), (0, -1, 0), (0, -1, 0), (0, -1, 0), (0, -1, 0), (0, -1, 0), (0, -1, 0), (0, -1, 0), (0, -1, 0), (0, -1, 0), (0, -1, 0), (0, -1, 0), (0, -1, 0), (0, -1, 0), (0, -1, 0), (0, -1, 0), (0, -1, 0), (0, -1, 0), (0, -1, 0), (0, -1, 0), (0, -1, 0), (0, -1, 0), (0, -1, 0), (0, -0.99999994, 0), (0, -0.99999994, 0), (0, -0.99999994, 0), (0, -0.99999994, 0), (0, -0.99999994, 0), (0, -0.99999994, 0), (0, -1, 0), (0, -1, 0), (0, -1, 0), (0, -0.99999994, 0), (0, -0.99999994, 0), (0, -0.99999994, 0), (0, -1, 0), (0, -1, 0), (0, -1, 0), (0, -0.99999994, 0), (0, -0.99999994, 0), (0, -0.99999994, 0), (0, -1, 0), (0, -1, 0), (0, -1, 0), (0, -1, 0), (0, -1, 0), (0, -1, 0), (0, -1, 0), (0, -1, 0), (0, -1, 0), (0, -1, 0), (0, -1, 0), (0, -1, 0), (0, -1, 0), (0, -1, 0), (0, -1, 0), (0, -0.99999994, 0), (0, -0.99999994, 0), (0, -0.99999994, 0), (0, -1, 0), (0, -1, 0), (0, -1, 0), (0, -1, 0), (0, -1, 0), (0, -1, 0), (0, -1, 0), (0, -1, 0), (0, -1, 0), (0, -1, 0), (0, -1, 0), (0, -1, 0), (0, -1, 0), (0, -1, 0), (0, -1, 0), (0, -1, 0), (0, -1, 0), (0, -1, 0), (0, -1, 0), (0, -1, 0), (0, -1, 0), (0, -1, 0), (0, -1, 0), (0, -1, 0), (0, -1, 0), (0, -1, 0), (0, -1, 0), (0, -1, 0), (0, -1, 0), (0, -1, 0), (0, -0.99999994, 0), (0, -0.99999994, 0), (0, -0.99999994, 0), (0, -1, 0), (0, -1, 0), (0, -1, 0), (0, -1, 0), (0, -1, 0), (0, -1, 0), (0, -1, 0), (0, -1, 0), (0, -1, 0), (0, -1, 0), (0, -1, 0), (0, -1, 0), (0, -1, 0), (0, -1, 0), (0, -1, 0)] (
                interpolation = "faceVarying"
            )
            point3f[] points = [(-1.2, 0, 2.2), (-0.9818182, 0, 2.2), (-0.76363635, 0, 2.2), (-0.54545456, 0, 2.2), (-0.3272727, 0, 2.2), (-0.10909091, 0, 2.2), (0.10909091, 0, 2.2), (0.3272727, 0, 2.2), (0.54545456, 0, 2.2), (0.76363635, 0, 2.2), (0.9818182, 0, 2.2), (1.2, 0, 2.2), (-1.2, 0, 1.9857143), (-0.9818182, 0, 1.9857143), (-0.76363635, 0, 1.9857143), (-0.54545456, 0, 1.9857143), (-0.3272727, 0, 1.9857143), (-0.10909091, 0, 1.9857143), (0.10909091, 0, 1.9857143), (0.3272727, 0, 1.9857143), (0.54545456, 0, 1.9857143), (0.76363635, 0, 1.9857143), (0.9818182, 0, 1.9857143), (1.2, 0, 1.9857143), (-1.2, 0, 1.7714286), (-0.9818182, 0, 1.7714286), (-0.76363635, 0, 1.7714286), (-0.54545456, 0, 1.7714286), (-0.3272727, 0, 1.7714286), (-0.10909091, 0, 1.7714286), (0.10909091, 0, 1.7714286), (0.3272727, 0, 1.7714286), (0.54545456, 0, 1.7714286), (0.76363635, 0, 1.7714286), (0.9818182, 0, 1.7714286), (1.2, 0, 1.7714286), (-1.2, 0, 1.5571429), (-0.9818182, 0, 1.5571429), (-0.76363635, 0, 1.5571429), (-0.54545456, 0, 1.5571429), (-0.3272727, 0, 1.5571429), (-0.10909091, 0, 1.5571429), (0.10909091, 0, 1.5571429), (0.3272727, 0, 1.5571429), (0.54545456, 0, 1.5571429), (0.76363635, 0, 1.5571429), (0.9818182, 0, 1.5571429), (1.2, 0, 1.5571429), (-1.2, 0, 1.3428571), (-0.9818182, 0, 1.3428571), (-0.76363635, 0, 1.3428571), (-0.54545456, 0, 1.3428571), (-0.3272727, 0, 1.3428571), (-0.10909091, 0, 1.3428571), (0.10909091, 0, 1.3428571), (0.3272727, 0, 1.3428571), (0.54545456, 0, 1.3428571), (0.76363635, 0, 1.3428571), (0.9818182, 0, 1.3428571), (1.2, 0, 1.3428571), (-1.2, 0, 1.1285714), (-0.9818182, 0, 1.1285714), (-0.76363635, 0, 1.1285714), (-0.54545456, 0, 1.1285714), (-0.3272727, 0, 1.1285714), (-0.10909091, 0, 1.1285714), (0.10909091, 0, 1.1285714), (0.3272727, 0, 1.1285714), (0.54545456, 0, 1.1285714), (0.76363635, 0, 1.1285714), (0.9818182, 0, 1.1285714), (1.2, 0, 1.1285714), (-1.2, 0, 0.9142857), (-0.9818182, 0, 0.9142857), (-0.76363635, 0, 0.9142857), (-0.54545456, 0, 0.9142857), (-0.3272727, 0, 0.9142857), (-0.10909091, 0, 0.9142857), (0.10909091, 0, 0.9142857), (0.3272727, 0, 0.9142857), (0.54545456, 0, 0.9142857), (0.76363635, 0, 0.9142857), (0.9818182, 0, 0.9142857), (1.2, 0, 0.9142857), (-1.2, 0, 0.7), (-0.9818182, 0, 0.7), (-0.76363635, 0, 0.7), (-0.54545456, 0, 0.7), (-0.3272727, 0, 0.7), (-0.10909091, 0, 0.7), (0.10909091, 0, 0.7), (0.3272727, 0, 0.7), (0.54545456, 0, 0.7), (0.76363635, 0, 0.7), (0.9818182, 0, 0.7), (1.2, 0, 0.7)]
            texCoord2f[] primvars:st = [(0, 1), (0.09090909, 1), (0.18181819, 1), (0.27272728, 1), (0.36363637, 1), (0.45454547, 1), (0.54545456, 1), (0.6363636, 1), (0.72727275, 1), (0.8181818, 1), (0.90909094, 1), (1, 1), (0, 0.85714287), (0.09090909, 0.85714287), (0.18181819, 0.85714287), (0.27272728, 0.85714287), (0.36363637, 0.85714287), (0.45454547, 0.85714287), (0.54545456, 0.85714287), (0.6363636, 0.85714287), (0.72727275, 0.85714287), (0.8181818, 0.85714287), (0.90909094, 0.85714287), (1, 0.85714287), (0, 0.71428573), (0.09090909, 0.71428573), (0.18181819, 0.71428573), (0.27272728, 0.71428573), (0.36363637, 0.71428573), (0.45454547, 0.71428573), (0.54545456, 0.71428573), (0.6363636, 0.71428573), (0.72727275, 0.71428573), (0.8181818, 0.71428573), (0.90909094, 0.71428573), (1, 0.71428573), (0, 0.5714286), (0.09090909, 0.5714286), (0.18181819, 0.5714286), (0.27272728, 0.5714286), (0.36363637, 0.5714286), (0.45454547, 0.5714286), (0.54545456, 0.5714286), (0.6363636, 0.5714286), (0.72727275, 0.5714286), (0.8181818, 0.5714286), (0.90909094, 0.5714286), (1, 0.5714286), (0, 0.42857143), (0.09090909, 0.42857143), (0.18181819, 0.42857143), (0.27272728, 0.42857143), (0.36363637, 0.42857143), (0.45454547, 0.42857143), (0.54545456, 0.42857143), (0.6363636, 0.42857143), (0.72727275, 0.42857143), (0.8181818, 0.42857143), (0.90909094, 0.42857143), (1, 0.42857143), (0, 0.2857143), (0.09090909, 0.2857143), (0.18181819, 0.2857143), (0.27272728, 0.2857143), (0.36363637, 0.2857143), (0.45454547, 0.2857143), (0.54545456, 0.2857143), (0.6363636, 0.2857143), (0.72727275, 0.2857143), (0.8181818, 0.2857143), (0.90909094, 0.2857143), (1, 0.2857143), (0, 0.14285715), (0.09090909, 0.14285715), (0.18181819, 0.14285715), (0.27272728, 0.14285715), (0.36363637, 0.14285715), (0.45454547, 0.14285715), (0.54545456, 0.14285715), (0.6363636, 0.14285715), (0.72727275, 0.14285715), (0.8181818, 0.14285715), (0.90909094, 0.14285715), (1, 0.14285715), (0, 0), (0.09090909, 0), (0.18181819, 0), (0.27272728, 0), (0.36363637, 0), (0.45454547, 0), (0.54545456, 0), (0.6363636, 0), (0.72727275, 0), (0.8181818, 0), (0.90909094, 0), (1, 0)] (
                interpolation = "faceVarying"
            )
            int[] primvars:st:indices = [0, 12, 1, 1, 12, 13, 1, 13, 2, 2, 13, 14, 2, 14, 3, 3, 14, 15, 3, 15, 4, 4, 15, 16, 4, 16, 5, 5, 16, 17, 5, 17, 6, 6, 17, 18, 6, 18, 7, 7, 18, 19, 7, 19, 8, 8, 19, 20, 8, 20, 9, 9, 20, 21, 9, 21, 10, 10, 21, 22, 10, 22, 11, 11, 22, 23, 12, 24, 13, 13, 24, 25, 13, 25, 14, 14, 25, 26, 14, 26, 15, 15, 26, 27, 15, 27, 16, 16, 27, 28, 16, 28, 17, 17, 28, 29, 17, 29, 18, 18, 29, 30, 18, 30, 19, 19, 30, 31, 19, 31, 20, 20, 31, 32, 20, 32, 21, 21, 32, 33, 21, 33, 22, 22, 33, 34, 22, 34, 23, 23, 34, 35, 24, 36, 25, 25, 36, 37, 25, 37, 26, 26, 37, 38, 26, 38, 27, 27, 38, 39, 27, 39, 28, 28, 39, 40, 28, 40, 29, 29, 40, 41, 29, 41, 30, 30, 41, 42, 30, 42, 31, 31, 42, 43, 31, 43, 32, 32, 43, 44, 32, 44, 33, 33, 44, 45, 33, 45, 34, 34, 45, 46, 34, 46, 35, 35, 46, 47, 36, 48, 37, 37, 48, 49, 37, 49, 38, 38, 49, 50, 38, 50, 39, 39, 50, 51, 39, 51, 40, 40, 51, 52, 40, 52, 41, 41, 52, 53, 41, 53, 42, 42, 53, 54, 42, 54, 43, 43, 54, 55, 43, 55, 44, 44, 55, 56, 44, 56, 45, 45, 56, 57, 45, 57, 46, 46, 57, 58, 46, 58, 47, 47, 58, 59, 48, 60, 49, 49, 60, 61, 49, 61, 50, 50, 61, 62, 50, 62, 51, 51, 62, 63, 51, 63, 52, 52, 63, 64, 52, 64, 53, 53, 64, 65, 53, 65, 54, 54, 65, 66, 54, 66, 55, 55, 66, 67, 55, 67, 56, 56, 67, 68, 56, 68, 57, 57, 68, 69, 57, 69, 58, 58, 69, 70, 58, 70, 59, 59, 70, 71, 60, 72, 61, 61, 72, 73, 61, 73, 62, 62, 73, 74, 62, 74, 63, 63, 74, 75, 63, 75, 64, 64, 75, 76, 64, 76, 65, 65, 76, 77, 65, 77, 66, 66, 77, 78, 66, 78, 67, 67, 78, 79, 67, 79, 68, 68, 79, 80, 68, 80, 69, 69, 80, 81, 69, 81, 70, 70, 81, 82, 70, 82, 71, 71, 82, 83, 72, 84, 73, 73, 84, 85, 73, 85, 74, 74, 85, 86, 74, 86, 75, 75, 86, 87, 75, 87, 76, 76, 87, 88, 76, 88, 77, 77, 88, 89, 77, 89, 78, 78, 89, 90, 78, 90, 79, 79, 90, 91, 79, 91, 80, 80, 91, 92, 80, 92, 81, 81, 92, 93, 81, 93, 82, 82, 93, 94, 82, 94, 83, 83, 94, 95]
            uniform token subdivisionScheme = "none"
            custom string userProperties:blender:data_name = "FlagMesh"
        }
    }

    def Xform "Key_Light"
    {
        custom string userProperties:blender:object_name = "Key Light"
        float3 xformOp:rotateXYZ = (20, -0, 0)
        float3 xformOp:scale = (1, 0.99999994, 0.99999994)
        double3 xformOp:translate = (0, -2, 4.199999809265137)
        uniform token[] xformOpOrder = ["xformOp:translate", "xformOp:rotateXYZ", "xformOp:scale"]

        def DiskLight "Area" (
            prepend apiSchemas = ["ColorSpaceAPI"]
        )
        {
            uniform token colorSpace:name = "lin_rec709_scene"
            float3[] extent = [(-2, -2, -0), (2, 2, 0)]
            float inputs:intensity = 286.4789
            bool inputs:normalize = 1
            float inputs:radius = 2
            custom string userProperties:blender:data_name = "Area"
        }
    }

    def DomeLight "env_light" (
        prepend apiSchemas = ["ColorSpaceAPI"]
    )
    {
        uniform token colorSpace:name = "lin_rec709_scene"
        float inputs:intensity = 1
        asset inputs:texture:file = @./textures/color_0C0C0C.exr@
    }
}

